REM DIRINDEX 1\2,1\3,1\4,1\5
REM DIRNAME folder01,folder02,folder03,folder04,folder05
TITLE ""
FILE "CD2Track08.mp3" MP3
  TRACK 01 AUDIO
    TITLE "5:cjc154_2124"
    INDEX 01 00:00:00
  TRACK 02 AUDIO
    TITLE "0:"
    INDEX 01 00:01:38
  TRACK 03 AUDIO
    TITLE "2:cjc154_2125"
    INDEX 01 00:02:38
  TRACK 04 AUDIO
    TITLE "3:cjc154_2126"
    INDEX 01 00:03:47
  TRACK 05 AUDIO
    TITLE "2:cjc154_2127"
    INDEX 01 00:04:58
  TRACK 06 AUDIO
    TITLE "3:cjc154_2128"
    INDEX 01 00:06:69
  TRACK 07 AUDIO
    TITLE "2:cjc154_2129"
    INDEX 01 00:09:14
  TRACK 08 AUDIO
    TITLE "3:cjc154_2130"
    INDEX 01 00:11:40
  TRACK 09 AUDIO
    TITLE "2:cjc154_2131"
    INDEX 01 00:14:00
  TRACK 10 AUDIO
    TITLE "3:cjc154_2132"
    INDEX 01 00:15:54
  TRACK 11 AUDIO
    TITLE "2:cjc154_2133"
    INDEX 01 00:17:45
  TRACK 12 AUDIO
    TITLE "3:cjc154_2134"
    INDEX 01 00:19:11
  TRACK 13 AUDIO
    TITLE "2:cjc154_2135"
    INDEX 01 00:20:61
  TRACK 14 AUDIO
    TITLE "3:cjc154_2136"
    INDEX 01 00:23:57
  TRACK 15 AUDIO
    TITLE "2:cjc154_2137"
    INDEX 01 00:26:56
  TRACK 16 AUDIO
    TITLE "3:cjc154_2138"
    INDEX 01 00:28:25
  TRACK 17 AUDIO
    TITLE "2:cjc154_2139"
    INDEX 01 00:29:74
  TRACK 18 AUDIO
    TITLE "3:cjc154_2140"
    INDEX 01 00:31:71
  TRACK 19 AUDIO
    TITLE "2:cjc154_2141"
    INDEX 01 00:34:02
  TRACK 20 AUDIO
    TITLE "3:cjc154_2142"
    INDEX 01 00:35:37
  TRACK 21 AUDIO
    TITLE "2:cjc154_2143"
    INDEX 01 00:37:05
  TRACK 22 AUDIO
    TITLE "3:cjc154_2144"
    INDEX 01 00:38:12
  TRACK 23 AUDIO
    TITLE "2:cjc154_2145"
    INDEX 01 00:39:29
  TRACK 24 AUDIO
    TITLE "3:cjc154_2146"
    INDEX 01 00:40:48
  TRACK 25 AUDIO
    TITLE "2:cjc154_2147"
    INDEX 01 00:41:71
  TRACK 26 AUDIO
    TITLE "3:cjc154_2148"
    INDEX 01 00:43:03
  TRACK 27 AUDIO
    TITLE "2:cjc154_2149"
    INDEX 01 00:44:20
  TRACK 28 AUDIO
    TITLE "3:cjc154_2150"
    INDEX 01 00:46:15
  TRACK 29 AUDIO
    TITLE "2:cjc154_2151"
    INDEX 01 00:48:22
  TRACK 30 AUDIO
    TITLE "3:cjc154_2152"
    INDEX 01 00:49:61
  TRACK 31 AUDIO
    TITLE "2:cjc154_2153"
    INDEX 01 00:51:30
  TRACK 32 AUDIO
    TITLE "3:cjc154_2154"
    INDEX 01 00:53:51
  TRACK 33 AUDIO
    TITLE "2:cjc154_2155"
    INDEX 01 00:55:73
  TRACK 34 AUDIO
    TITLE "3:cjc154_2156"
    INDEX 01 00:57:56
  TRACK 35 AUDIO
    TITLE "2:cjc154_2157"
    INDEX 01 00:59:41
  TRACK 36 AUDIO
    TITLE "3:cjc154_2158"
    INDEX 01 01:02:12
  TRACK 37 AUDIO
    TITLE "2:cjc154_2159"
    INDEX 01 01:04:58
  TRACK 38 AUDIO
    TITLE "3:cjc154_2160"
    INDEX 01 01:06:24
  TRACK 39 AUDIO
    TITLE "2:cjc154_2161"
    INDEX 01 01:07:68
  TRACK 40 AUDIO
    TITLE "3:cjc154_2162"
    INDEX 01 01:09:40
  TRACK 41 AUDIO
    TITLE "2:cjc154_2163"
    INDEX 01 01:11:13
  TRACK 42 AUDIO
    TITLE "3:cjc154_2164"
    INDEX 01 01:13:26
  TRACK 43 AUDIO
    TITLE "2:cjc154_2165"
    INDEX 01 01:15:42
  TRACK 44 AUDIO
    TITLE "3:cjc154_2166"
    INDEX 01 01:17:55
  TRACK 45 AUDIO
    TITLE "2:cjc154_2167"
    INDEX 01 01:19:70
  TRACK 46 AUDIO
    TITLE "3:cjc154_2168"
    INDEX 01 01:22:48
  TRACK 47 AUDIO
    TITLE "2:cjc154_2169"
    INDEX 01 01:25:27
  TRACK 48 AUDIO
    TITLE "3:cjc154_2170"
    INDEX 01 01:26:40
  TRACK 49 AUDIO
    TITLE "2:cjc154_2171"
    INDEX 01 01:27:57
  TRACK 50 AUDIO
    TITLE "3:cjc154_2172"
    INDEX 01 01:29:41
  TRACK 51 AUDIO
    TITLE "2:cjc154_2173"
    INDEX 01 01:31:22
  TRACK 52 AUDIO
    TITLE "3:cjc154_2174"
    INDEX 01 01:33:74
  TRACK 53 AUDIO
    TITLE "2:cjc154_2175"
    INDEX 01 01:36:52
  TRACK 54 AUDIO
    TITLE "3:cjc154_2176"
    INDEX 01 01:38:06
  TRACK 55 AUDIO
    TITLE "2:cjc154_2177"
    INDEX 01 01:39:45
  TRACK 56 AUDIO
    TITLE "3:cjc154_2178"
    INDEX 01 01:40:68
  TRACK 57 AUDIO
    TITLE "2:cjc154_2179"
    INDEX 01 01:42:22
  TRACK 58 AUDIO
    TITLE "3:cjc154_2180"
    INDEX 01 01:43:52
  TRACK 59 AUDIO
    TITLE "2:cjc154_2181"
    INDEX 01 01:45:10
  TRACK 60 AUDIO
    TITLE "3:cjc154_2182"
    INDEX 01 01:47:29
  TRACK 61 AUDIO
    TITLE "2:cjc154_2183"
    INDEX 01 01:49:47
  TRACK 62 AUDIO
    TITLE "3:cjc154_2184"
    INDEX 01 01:50:60
  TRACK 63 AUDIO
    TITLE "2:cjc154_2185"
    INDEX 01 01:52:06
  TRACK 64 AUDIO
    TITLE "3:cjc154_2186"
    INDEX 01 01:53:67
  TRACK 65 AUDIO
    TITLE "2:cjc154_2187"
    INDEX 01 01:55:62
  TRACK 66 AUDIO
    TITLE "3:cjc154_2188"
    INDEX 01 01:57:74
  TRACK 67 AUDIO
    TITLE "2:cjc154_2189"
    INDEX 01 02:00:24
  TRACK 68 AUDIO
    TITLE "3:cjc154_2190"
    INDEX 01 02:01:66
  TRACK 69 AUDIO
    TITLE "2:cjc154_2191"
    INDEX 01 02:03:39
  TRACK 70 AUDIO
    TITLE "3:cjc154_2192"
    INDEX 01 02:05:62
  TRACK 71 AUDIO
    TITLE "2:cjc154_2193"
    INDEX 01 02:08:17
  TRACK 72 AUDIO
    TITLE "3:cjc154_2194"
    INDEX 01 02:09:71
  TRACK 73 AUDIO
    TITLE "2:cjc154_2195"
    INDEX 01 02:11:61
  TRACK 74 AUDIO
    TITLE "3:cjc154_2196"
    INDEX 01 02:14:16
  TRACK 75 AUDIO
    TITLE "2:cjc154_2197"
    INDEX 01 02:16:52
  TRACK 76 AUDIO
    TITLE "3:cjc154_2198"
    INDEX 01 02:18:27
  TRACK 77 AUDIO
    TITLE "2:cjc154_2199"
    INDEX 01 02:20:11
  TRACK 78 AUDIO
    TITLE "3:cjc154_2200"
    INDEX 01 02:21:65
  TRACK 79 AUDIO
    TITLE "2:cjc154_2201"
    INDEX 01 02:23:52
  TRACK 80 AUDIO
    TITLE "3:cjc154_2202"
    INDEX 01 02:24:71
  TRACK 81 AUDIO
    TITLE "2:cjc154_2203"
    INDEX 01 02:26:15
  TRACK 82 AUDIO
    TITLE "3:cjc154_2204"
    INDEX 01 02:28:18
  TRACK 83 AUDIO
    TITLE "2:cjc154_2205"
    INDEX 01 02:30:27
  TRACK 84 AUDIO
    TITLE "3:cjc154_2206"
    INDEX 01 02:31:71
  TRACK 85 AUDIO
    TITLE "2:cjc154_2207"
    INDEX 01 02:33:50
  TRACK 86 AUDIO
    TITLE "3:cjc154_2208"
    INDEX 01 02:35:10
  TRACK 87 AUDIO
    TITLE "2:cjc154_2209"
    INDEX 01 02:36:53
  TRACK 88 AUDIO
    TITLE "3:cjc154_2210"
    INDEX 01 02:39:04
  TRACK 89 AUDIO
    TITLE "2:cjc154_2211"
    INDEX 01 02:41:40
  TRACK 90 AUDIO
    TITLE "3:cjc154_2212"
    INDEX 01 02:43:12
  TRACK 91 AUDIO
    TITLE "2:cjc154_2213"
    INDEX 01 02:44:58
  TRACK 92 AUDIO
    TITLE "3:cjc154_2214"
    INDEX 01 02:46:12
  TRACK 93 AUDIO
    TITLE "2:cjc154_2215"
    INDEX 01 02:47:49
  TRACK 94 AUDIO
    TITLE "3:cjc154_2216"
    INDEX 01 02:50:31
  TRACK 95 AUDIO
    TITLE "2:cjc154_2217"
    INDEX 01 02:53:26
  TRACK 96 AUDIO
    TITLE "3:cjc154_2218"
    INDEX 01 02:55:34
  TRACK 97 AUDIO
    TITLE "2:cjc154_2219"
    INDEX 01 02:57:51
  TRACK 98 AUDIO
    TITLE "3:cjc154_2220"
    INDEX 01 02:59:34
  TRACK 99 AUDIO
    TITLE "2:cjc154_2221"
    INDEX 01 03:01:23
  TRACK 100 AUDIO
    TITLE "3:cjc154_2222"
    INDEX 01 03:02:64
  TRACK 101 AUDIO
    TITLE "2:cjc154_2223"
    INDEX 01 03:04:37
  TRACK 102 AUDIO
    TITLE "3:cjc154_2224"
    INDEX 01 03:06:48
  TRACK 103 AUDIO
    TITLE "2:cjc154_2225"
    INDEX 01 03:08:70
  TRACK 104 AUDIO
    TITLE "3:cjc154_2226"
    INDEX 01 03:10:14
  TRACK 105 AUDIO
    TITLE "2:cjc154_2227"
    INDEX 01 03:11:29
  TRACK 106 AUDIO
    TITLE "3:cjc154_2228"
    INDEX 01 03:13:07
  TRACK 107 AUDIO
    TITLE "2:cjc154_2229"
    INDEX 01 03:14:67
  TRACK 108 AUDIO
    TITLE "3:cjc154_2230"
    INDEX 01 03:16:33
  TRACK 109 AUDIO
    TITLE "2:cjc154_2231"
    INDEX 01 03:18:04
  TRACK 110 AUDIO
    TITLE "3:cjc154_2232"
    INDEX 01 03:21:14
  TRACK 111 AUDIO
    TITLE "2:cjc154_2233"
    INDEX 01 03:24:32
  TRACK 112 AUDIO
    TITLE "3:cjc154_2234"
    INDEX 01 03:26:15
  TRACK 113 AUDIO
    TITLE "2:cjc154_2235"
    INDEX 01 03:28:08
  TRACK 114 AUDIO
    TITLE "3:cjc154_2236"
    INDEX 01 03:30:27
  TRACK 115 AUDIO
    TITLE "2:cjc154_2237"
    INDEX 01 03:32:55
  TRACK 116 AUDIO
    TITLE "3:cjc154_2238"
    INDEX 01 03:34:30
  TRACK 117 AUDIO
    TITLE "2:cjc154_2239"
    INDEX 01 03:36:16
  TRACK 118 AUDIO
    TITLE "3:cjc154_2240"
    INDEX 01 03:37:37
  TRACK 119 AUDIO
    TITLE "2:cjc154_2241"
    INDEX 01 03:38:66
  TRACK 120 AUDIO
    TITLE "3:cjc154_2242"
    INDEX 01 03:40:60
  TRACK 121 AUDIO
    TITLE "2:cjc154_2243"
    INDEX 01 03:42:61
  TRACK 122 AUDIO
    TITLE "3:cjc154_2244"
    INDEX 01 03:44:43
  TRACK 123 AUDIO
    TITLE "2:cjc154_2245"
    INDEX 01 03:46:26
  TRACK 124 AUDIO
    TITLE "3:cjc154_2246"
    INDEX 01 03:48:03
  TRACK 125 AUDIO
    TITLE "2:cjc154_2247"
    INDEX 01 03:49:61
  TRACK 126 AUDIO
    TITLE "3:cjc154_2248"
    INDEX 01 03:51:25
  TRACK 127 AUDIO
    TITLE "2:cjc154_2249"
    INDEX 01 03:52:72
  TRACK 128 AUDIO
    TITLE "3:cjc154_2250"
    INDEX 01 03:54:23
  TRACK 129 AUDIO
    TITLE "2:cjc154_2251"
    INDEX 01 03:55:56
  TRACK 130 AUDIO
    TITLE "3:cjc154_2252"
    INDEX 01 03:58:33
  TRACK 131 AUDIO
    TITLE "2:cjc154_2253"
    INDEX 01 04:01:18
  TRACK 132 AUDIO
    TITLE "3:cjc154_2254"
    INDEX 01 04:03:24
  TRACK 133 AUDIO
    TITLE "2:cjc154_2255"
    INDEX 01 04:05:39
  TRACK 134 AUDIO
    TITLE "3:cjc154_2256"
    INDEX 01 04:07:08
  TRACK 135 AUDIO
    TITLE "2:cjc154_2257"
    INDEX 01 04:08:57
  TRACK 136 AUDIO
    TITLE "3:cjc154_2258"
    INDEX 01 04:11:16
  TRACK 137 AUDIO
    TITLE "2:cjc154_2259"
    INDEX 01 04:13:58
  TRACK 138 AUDIO
    TITLE "3:cjc154_2260"
    INDEX 01 04:15:26
  TRACK 139 AUDIO
    TITLE "2:cjc154_2261"
    INDEX 01 04:16:74
  TRACK 140 AUDIO
    TITLE "3:cjc154_2262"
    INDEX 01 04:19:29
  TRACK 141 AUDIO
    TITLE "2:cjc154_2263"
    INDEX 01 04:21:69
  TRACK 142 AUDIO
    TITLE "3:cjc154_2264"
    INDEX 01 04:23:25
  TRACK 143 AUDIO
    TITLE "2:cjc154_2265"
    INDEX 01 04:24:66
  TRACK 144 AUDIO
    TITLE "3:cjc154_2266"
    INDEX 01 04:26:27
  TRACK 145 AUDIO
    TITLE "2:cjc154_2267"
    INDEX 01 04:27:74
  TRACK 146 AUDIO
    TITLE "3:cjc154_2268"
    INDEX 01 04:29:69
  TRACK 147 AUDIO
    TITLE "2:cjc154_2269"
    INDEX 01 04:31:74
  TRACK 148 AUDIO
    TITLE "3:cjc154_2270"
    INDEX 01 04:33:53
  TRACK 149 AUDIO
    TITLE "2:cjc154_2271"
    INDEX 01 04:35:46
  TRACK 150 AUDIO
    TITLE "3:cjc154_2272"
    INDEX 01 04:37:53
  TRACK 151 AUDIO
    TITLE "2:cjc154_2273"
    INDEX 01 04:39:63
  TRACK 152 AUDIO
    TITLE "3:cjc154_2274"
    INDEX 01 04:41:19
  TRACK 153 AUDIO
    TITLE "2:cjc154_2275"
    INDEX 01 04:42:60
  TRACK 154 AUDIO
    TITLE "3:cjc154_2276"
    INDEX 01 04:44:66
  TRACK 155 AUDIO
    TITLE "2:cjc154_2277"
    INDEX 01 04:47:00
  TRACK 156 AUDIO
    TITLE "3:cjc154_2278"
    INDEX 01 04:48:60
  TRACK 157 AUDIO
    TITLE "2:cjc154_2279"
    INDEX 01 04:50:49
  TRACK 158 AUDIO
    TITLE "3:cjc154_2280"
    INDEX 01 04:51:68
  TRACK 159 AUDIO
    TITLE "2:cjc154_2281"
    INDEX 01 04:53:20
  TRACK 160 AUDIO
    TITLE "3:cjc154_2282"
    INDEX 01 04:55:09
  TRACK 161 AUDIO
    TITLE "2:cjc154_2283"
    INDEX 01 04:57:04
  TRACK 162 AUDIO
    TITLE "3:cjc154_2284"
    INDEX 01 04:59:01
  TRACK 163 AUDIO
    TITLE "2:cjc154_2285"
    INDEX 01 05:01:06
  TRACK 164 AUDIO
    TITLE "3:cjc154_2286"
    INDEX 01 05:02:64
  TRACK 165 AUDIO
    TITLE "2:cjc154_2287"
    INDEX 01 05:04:57
  TRACK 166 AUDIO
    TITLE "3:cjc154_2288"
    INDEX 01 05:06:31
  TRACK 167 AUDIO
    TITLE "2:cjc154_2289"
    INDEX 01 05:08:16
  TRACK 168 AUDIO
    TITLE "3:cjc154_2290"
    INDEX 01 05:10:05
  TRACK 169 AUDIO
    TITLE "2:cjc154_2291"
    INDEX 01 05:12:04
  TRACK 170 AUDIO
    TITLE "3:cjc154_2292"
    INDEX 01 05:14:01
  TRACK 171 AUDIO
    TITLE "2:cjc154_2293"
    INDEX 01 05:16:10
  TRACK 172 AUDIO
    TITLE "3:cjc154_2294"
    INDEX 01 05:18:20
  TRACK 173 AUDIO
    TITLE "2:cjc154_2295"
    INDEX 01 05:20:43
  TRACK 174 AUDIO
    TITLE "3:cjc154_2296"
    INDEX 01 05:22:28
  TRACK 175 AUDIO
    TITLE "2:cjc154_2297"
    INDEX 01 05:24:19
  TRACK 176 AUDIO
    TITLE "3:cjc154_2298"
    INDEX 01 05:26:04
  TRACK 177 AUDIO
    TITLE "2:cjc154_2299"
    INDEX 01 05:27:72
  TRACK 178 AUDIO
    TITLE "3:cjc154_2300"
    INDEX 01 05:29:59
  TRACK 179 AUDIO
    TITLE "2:cjc154_2301"
    INDEX 01 05:31:46
  TRACK 180 AUDIO
    TITLE "3:cjc154_2302"
    INDEX 01 05:33:02
  TRACK 181 AUDIO
    TITLE "2:cjc154_2303"
    INDEX 01 05:34:43
  TRACK 182 AUDIO
    TITLE "3:cjc154_2304"
    INDEX 01 05:36:36
  TRACK 183 AUDIO
    TITLE "2:cjc154_2305"
    INDEX 01 05:38:35
  TRACK 184 AUDIO
    TITLE "3:cjc154_2306"
    INDEX 01 05:41:06
  TRACK 185 AUDIO
    TITLE "2:cjc154_2307"
    INDEX 01 05:43:55
  TRACK 186 AUDIO
    TITLE "3:cjc154_2308"
    INDEX 01 05:45:48
  TRACK 187 AUDIO
    TITLE "2:cjc154_2309"
    INDEX 01 05:47:51
  TRACK 188 AUDIO
    TITLE "3:cjc154_2310"
    INDEX 01 05:49:13
  TRACK 189 AUDIO
    TITLE "2:cjc154_2311"
    INDEX 01 05:50:59
  TRACK 190 AUDIO
    TITLE "3:cjc154_2312"
    INDEX 01 05:52:50
  TRACK 191 AUDIO
    TITLE "2:cjc154_2313"
    INDEX 01 05:54:53
  TRACK 192 AUDIO
    TITLE "3:cjc154_2314"
    INDEX 01 05:56:35
  TRACK 193 AUDIO
    TITLE "2:cjc154_2315"
    INDEX 01 05:58:16
  TRACK 194 AUDIO
    TITLE "3:cjc154_2316"
    INDEX 01 06:00:11
  TRACK 195 AUDIO
    TITLE "2:cjc154_2317"
    INDEX 01 06:02:14
  TRACK 196 AUDIO
    TITLE "3:cjc154_2318"
    INDEX 01 06:04:03
  TRACK 197 AUDIO
    TITLE "2:cjc154_2319"
    INDEX 01 06:06:04
  TRACK 198 AUDIO
    TITLE "3:cjc154_2320"
    INDEX 01 06:08:14
  TRACK 199 AUDIO
    TITLE "2:cjc154_2321"
    INDEX 01 06:10:41
  TRACK 200 AUDIO
    TITLE "3:cjc154_2322"
    INDEX 01 06:12:59
  TRACK 201 AUDIO
    TITLE "2:cjc154_2323"
    INDEX 01 06:15:20
  TRACK 202 AUDIO
    TITLE "3:cjc154_2324"
    INDEX 01 06:16:71
  TRACK 203 AUDIO
    TITLE "2:cjc154_2325"
    INDEX 01 06:18:48
  TRACK 204 AUDIO
    TITLE "3:cjc154_2326"
    INDEX 01 06:20:29
  TRACK 205 AUDIO
    TITLE "2:cjc154_2327"
    INDEX 01 06:22:22
  TRACK 206 AUDIO
    TITLE "3:cjc154_2328"
    INDEX 01 06:23:49
  TRACK 207 AUDIO
    TITLE "2:cjc154_2329"
    INDEX 01 06:25:13
  TRACK 208 AUDIO
    TITLE "3:cjc154_2330"
    INDEX 01 06:26:59
  TRACK 209 AUDIO
    TITLE "2:cjc154_2331"
    INDEX 01 06:28:40
  TRACK 210 AUDIO
    TITLE "3:cjc154_2332"
    INDEX 01 06:29:56
  TRACK 211 AUDIO
    TITLE "2:cjc154_2333"
    INDEX 01 06:31:02
  TRACK 212 AUDIO
    TITLE "3:cjc154_2334"
    INDEX 01 06:33:00
  TRACK 213 AUDIO
    TITLE "2:cjc154_2335"
    INDEX 01 06:35:11
  TRACK 214 AUDIO
    TITLE "3:cjc154_2336"
    INDEX 01 06:36:60
  TRACK 215 AUDIO
    TITLE "2:cjc154_2337"
    INDEX 01 06:38:39
  TRACK 216 AUDIO
    TITLE "3:cjc154_2338"
    INDEX 01 06:40:00
  TRACK 217 AUDIO
    TITLE "2:cjc154_2339"
    INDEX 01 06:41:49
  TRACK 218 AUDIO
    TITLE "3:cjc154_2340"
    INDEX 01 06:42:72
  TRACK 219 AUDIO
    TITLE "2:cjc154_2341"
    INDEX 01 06:44:34
  TRACK 220 AUDIO
    TITLE "3:cjc154_2342"
    INDEX 01 06:46:52
  TRACK 221 AUDIO
    TITLE "2:cjc154_2343"
    INDEX 01 06:49:07
  TRACK 222 AUDIO
    TITLE "3:cjc154_2344"
    INDEX 01 06:51:47
  TRACK 223 AUDIO
    TITLE "2:cjc154_2345"
    INDEX 01 06:54:26
  TRACK 224 AUDIO
    TITLE "3:cjc154_2346"
    INDEX 01 06:55:47
  TRACK 225 AUDIO
    TITLE "2:cjc154_2347"
    INDEX 01 06:56:70
  TRACK 226 AUDIO
    TITLE "3:cjc154_2348"
    INDEX 01 06:58:34
  TRACK 227 AUDIO
    TITLE "2:cjc154_2349"
    INDEX 01 07:00:01
  TRACK 228 AUDIO
    TITLE "3:cjc154_2350"
    INDEX 01 07:02:06
  TRACK 229 AUDIO
    TITLE "2:cjc154_2351"
    INDEX 01 07:04:23
  TRACK 230 AUDIO
    TITLE "3:cjc154_2352"
    INDEX 01 07:06:45
  TRACK 231 AUDIO
    TITLE "2:cjc154_2353"
    INDEX 01 07:09:02
  TRACK 232 AUDIO
    TITLE "3:cjc154_2354"
    INDEX 01 07:11:05
  TRACK 233 AUDIO
    TITLE "2:cjc154_2355"
    INDEX 01 07:13:10
  TRACK 234 AUDIO
    TITLE "3:cjc154_2356"
    INDEX 01 07:14:41
  TRACK 235 AUDIO
    TITLE "2:cjc154_2357"
    INDEX 01 07:16:14
  TRACK 236 AUDIO
    TITLE "3:cjc154_2358"
    INDEX 01 07:17:68
  TRACK 237 AUDIO
    TITLE "2:cjc154_2359"
    INDEX 01 07:19:57
  TRACK 238 AUDIO
    TITLE "3:cjc154_2360"
    INDEX 01 07:21:58
  TRACK 239 AUDIO
    TITLE "2:cjc154_2361"
    INDEX 01 07:23:67
  TRACK 240 AUDIO
    TITLE "3:cjc154_2362"
    INDEX 01 07:26:61
  TRACK 241 AUDIO
    TITLE "2:cjc154_2363"
    INDEX 01 07:29:68
  TRACK 242 AUDIO
    TITLE "3:cjc154_2364"
    INDEX 01 07:31:31
  TRACK 243 AUDIO
    TITLE "2:cjc154_2365"
    INDEX 01 07:33:05
  TRACK 244 AUDIO
    TITLE "3:cjc154_2366"
    INDEX 01 07:34:18
  TRACK 245 AUDIO
    TITLE "2:cjc154_2367"
    INDEX 01 07:35:33
  TRACK 246 AUDIO
    TITLE "3:cjc154_2368"
    INDEX 01 07:36:50
  TRACK 247 AUDIO
    TITLE "2:cjc154_2369"
    INDEX 01 07:38:02
  TRACK 248 AUDIO
    TITLE "3:cjc154_2370"
    INDEX 01 07:39:62
  TRACK 249 AUDIO
    TITLE "2:cjc154_2371"
    INDEX 01 07:41:57
  TRACK 250 AUDIO
    TITLE "3:cjc154_2372"
    INDEX 01 07:43:19
  TRACK 251 AUDIO
    TITLE "2:cjc154_2373"
    INDEX 01 07:44:59
  TRACK 252 AUDIO
    TITLE "3:cjc154_2374"
    INDEX 01 07:47:05
  TRACK 253 AUDIO
    TITLE "2:cjc154_2375"
    INDEX 01 07:49:21
  TRACK 254 AUDIO
    TITLE "3:cjc154_2376"
    INDEX 01 07:51:59
  TRACK 255 AUDIO
    TITLE "2:cjc154_2377"
    INDEX 01 07:54:30
  TRACK 256 AUDIO
    TITLE "3:cjc154_2378"
    INDEX 01 07:56:12
  TRACK 257 AUDIO
    TITLE "2:cjc154_2379"
    INDEX 01 07:58:05
  TRACK 258 AUDIO
    TITLE "3:cjc154_2380"
    INDEX 01 07:59:49
  TRACK 259 AUDIO
    TITLE "0:"
    INDEX 01 08:01:30
